PathFileType	4	(X/Y/Z)	E:\Qualisys_Data\Carbon_Farble_Plate\Data\Amateur_Runner\S2\T1\S2T1V13_c3d.trc
DataRate	CameraRate	NumFrames	NumMarkers	Units	OrigDataRate	OrigDataStartFrame	OrigNumFrames
200.000000	200.000000	4	39	mm	200.000000	115	308
Frame#	Time	LSHO			RSHO			LICST			RICST			LASIS			LHEEL			RASIS			LTROC			RTROC			SACR			LTH1			LSK4			LTH2			LTH3			RHM5			LSK2			LTH4			RTH1			LTOE			RTH2			RTH3			RTH4			LLEP			RLEP			LSK1			LSK3			RSK1			LHM5			RSK2			LFT1			RSK3			RSK4			LLME			RLME			RTOE			RHEEL			RFT1			RFT2			LFT2			
		X1	Y1	Z1	X2	Y2	Z2	X3	Y3	Z3	X4	Y4	Z4	X5	Y5	Z5	X6	Y6	Z6	X7	Y7	Z7	X8	Y8	Z8	X9	Y9	Z9	X10	Y10	Z10	X11	Y11	Z11	X12	Y12	Z12	X13	Y13	Z13	X14	Y14	Z14	X15	Y15	Z15	X16	Y16	Z16	X17	Y17	Z17	X18	Y18	Z18	X19	Y19	Z19	X20	Y20	Z20	X21	Y21	Z21	X22	Y22	Z22	X23	Y23	Z23	X24	Y24	Z24	X25	Y25	Z25	X26	Y26	Z26	X27	Y27	Z27	X28	Y28	Z28	X29	Y29	Z29	X30	Y30	Z30	X31	Y31	Z31	X32	Y32	Z32	X33	Y33	Z33	X34	Y34	Z34	X35	Y35	Z35	X36	Y36	Z36	X37	Y37	Z37	X38	Y38	Z38	X39	Y39	Z39	

116	0.575	-309.0359802246094	1423.4716796875	-492.0947875976562	-287.7043151855469	1424.455444335938	-171.8040161132812	-389.3827819824219	979.2884521484376	-454.7903137207031	-358.6459045410156	965.95849609375	-150.2697906494141	-332.7322082519531	930.8866577148438	-442.3203735351562	-687.2330932617188	144.6961059570312	-324.5967712402344	-301.0390014648438	920.1599731445312	-182.2162322998047	-466.9634094238281	862.9384765625	-442.913818359375	-439.2648315429688	859.0416870117188	-143.4182891845703	-462.1185607910156	1018.635620117188	-294.0211486816406	-351.7142028808594	616.1056518554688	-457.1200561523438	-559.4379272460938	296.4125366210938	-416.1788330078125	-433.5135498046875	617.6701049804688	-452.8844909667969	-352.5982971191406	515.2363891601562	-431.5494995117188	-565.170166015625	213.0048370361328	-161.7644805908203	-505.111328125	378.2030029296875	-435.3658752441406	-436.3275756835938	520.125732421875	-425.8751525878906	-212.1510314941406	646.7915649414062	-140.3486480712891	-465.3740844726562	63.47299957275391	-337.3883666992188	-286.3087158203125	618.963623046875	-137.2996978759766	-179.0715179443359	551.90673828125	-159.6691436767578	-256.5618591308594	526.9791870117188	-156.1078338623047	-401.4558715820312	469.849609375	-428.5429077148438	-222.6012420654297	508.353515625	-152.3870697021484	-438.9766235351562	336.0039978027344	-423.6048889160156	-493.5037841796875	253.5240936279297	-407.1903381347656	-288.0097045898438	422.1142272949219	-157.9786529541016	-516.7230224609375	58.80364227294922	-403.9357604980469	-316.60205078125	497.3746032714844	-152.8142395019531	-683.2399291992188	116.3273468017578	-297.1812438964844	-383.0490417480469	386.0920715332031	-165.7973327636719	-408.7609252929688	461.5985717773438	-162.2766571044922	-624.114990234375	135.3347625732422	-380.0473937988281	-569.4826049804688	352.0784912109375	-189.0452880859375	-525.3764038085938	169.8806610107422	-224.3775482177734	-605.7134399414062	400.916015625	-244.0385894775391	-624.1553344726562	377.4366455078125	-276.9525451660156	-628.3837280273438	389.8655395507812	-219.0694885253906	-693.760986328125	116.4474639892578	-349.4258728027344
117	0.58	-290.0916442871094	1428.3037109375	-491.1863403320312	-273.4364624023438	1429.195922851562	-170.6949157714844	-370.7164306640625	982.79052734375	-454.0757446289062	-341.05517578125	971.3652954101562	-150.0370941162109	-315.4413452148438	934.1276245117188	-442.1690063476562	-683.0950927734375	150.4002838134766	-325.2908630371094	-284.0425415039062	925.1882934570312	-182.2163238525391	-450.4033508300781	867.54345703125	-442.4520874023438	-421.1992492675781	864.9465942382812	-141.5484313964844	-444.4880981445312	1023.388427734375	-295.125	-340.2622680664062	619.8606567382812	-456.3380432128906	-554.363525390625	302.5335693359375	-416.7348327636719	-422.0488891601562	623.310791015625	-452.287109375	-343.7199401855469	519.0159912109375	-431.4753723144531	-529.88037109375	204.6250152587891	-161.8651733398438	-499.198974609375	383.7248229980469	-436.09228515625	-427.3910827636719	526.2627563476562	-426.889404296875	-192.6854705810547	654.3035888671875	-140.7563171386719	-464.365478515625	63.65933609008789	-337.5303039550781	-265.8150634765625	625.2844848632812	-137.2745056152344	-157.8863677978516	560.308837890625	-161.0232238769531	-235.3535614013672	533.5201416015625	-156.4503784179688	-394.2574462890625	474.1218872070312	-428.7722778320312	-200.4466552734375	516.1549682617188	-152.6940155029297	-433.8841857910156	341.1285095214844	-424.9909973144531	-488.4476623535156	258.9049987792969	-408.6659240722656	-263.3157348632812	425.7623291015625	-158.8855133056641	-516.8181762695312	59.14332962036133	-403.9654541015625	-295.5112915039062	500.0204467773438	-152.849365234375	-679.8632202148438	122.8010406494141	-297.6225280761719	-356.8585510253906	385.4704284667969	-166.47216796875	-386.0643920898438	459.8831481933594	-162.0357666015625	-620.2239379882812	140.4221649169922	-380.8744812011719	-541.9390258789062	343.4808349609375	-189.180419921875	-487.0692443847656	162.8737182617188	-222.7532043457031	-580.9608764648438	389.6665344238281	-244.6978149414062	-598.235107421875	364.947021484375	-277.568603515625	-603.0465087890625	377.3561401367188	-219.6895599365234	-690.00048828125	122.9633331298828	-350.5752868652344
118	0.585	-271.19287109375	1433.467163085938	-490.0207824707031	-258.9037170410156	1433.771118164062	-169.7162933349609	-351.7755126953125	987.0225830078124	-453.9170837402344	-323.8085327148438	976.7532348632812	-150.0130767822266	-297.3189086914062	937.6732177734376	-441.3703002929688	-678.5435180664062	156.3873443603516	-326.4052429199219	-266.542724609375	930.4842529296876	-181.6073150634766	-433.8423767089844	872.0113525390625	-441.781982421875	-403.2895202636719	870.8267822265625	-139.8895416259766	-427.1068725585938	1028.020141601562	-295.90478515625	-327.8325500488281	623.7938842773438	-455.4626770019531	-549.0805053710938	308.6246948242188	-417.1852416992188	-410.0806579589844	629.0030517578125	-452.3530883789062	-334.2380065917969	522.85791015625	-430.6679992675781	-493.4989318847656	196.6364288330078	-161.5350036621094	-493.4232788085938	389.7196655273438	-436.6752014160156	-417.9690246582031	532.2271728515625	-427.0828247070312	-173.0948944091797	661.6612548828125	-141.7850646972656	-463.601318359375	63.92673873901367	-337.4883117675781	-245.6720581054688	631.5470581054688	-136.8844451904297	-137.0704345703125	567.9450073242188	-162.2488250732422	-213.8237457275391	540.5656127929688	-155.7266693115234	-386.4463500976562	479.2733154296875	-428.7063598632812	-179.1074981689453	522.6845703125	-153.5046691894531	-428.2287902832031	346.6383666992188	-426.2747192382812	-483.3482360839844	264.7036743164062	-410.5189819335938	-239.3259735107422	430.1925354003906	-159.1378173828125	-515.775634765625	60.00383377075195	-403.621337890625	-275.0681457519531	501.8842163085938	-152.9904479980469	-676.0567016601562	129.1009826660156	-298.1950378417969	-331.0886840820312	385.063232421875	-166.9732513427734	-363.5451049804688	457.5433654785156	-162.1858825683594	-615.2489013671875	146.2112426757812	-382.3170776367188	-514.2026977539062	333.974365234375	-189.1809692382812	-449.0968322753906	158.2542572021484	-223.8762359619141	-555.952392578125	378.0751953125	-245.1195526123047	-571.8460083007812	352.3775024414062	-277.9578552246094	-577.3451538085938	364.8670959472656	-220.6128387451172	-686.0170288085938	129.2604217529297	-351.4336853027344
119	0.59	-252.5130767822266	1438.376708984375	-488.7935485839844	-244.2930297851562	1438.492431640625	-168.9312133789062	-333.3869323730469	991.0590209960938	-453.173828125	-306.5829467773438	982.0338134765624	-149.9292755126953	-279.4883728027344	941.15966796875	-441.08251953125	-671.0366821289062	163.7398834228516	-328.8965148925781	-249.3569641113281	935.729736328125	-181.7960205078125	-416.8682250976562	876.81689453125	-441.4014892578125	-385.162109375	876.7827758789062	-137.9232330322266	-409.7134094238281	1032.361938476562	-296.6907348632812	-315.1318664550781	627.4474487304688	-454.9193725585938	-543.1741943359375	315.6603088378906	-418.2336120605469	-397.2880249023438	635.22509765625	-453.1141357421875	-324.2142639160156	526.8844604492188	-430.6448364257812	-457.1355285644531	188.8931274414062	-161.5645599365234	-487.0643310546875	396.0054016113281	-437.4887084960938	-407.9406127929688	538.0286254882812	-427.1639099121094	-153.6160278320312	668.6022338867188	-141.9482574462891	-462.3467407226562	64.11089324951172	-338.0625305175781	-225.5676116943359	637.7077026367188	-136.5334320068359	-116.7780990600586	575.5665283203125	-163.2344512939453	-192.5007934570312	547.0213623046875	-157.0029602050781	-378.17724609375	484.6315307617188	-429.6300964355469	-158.3276062011719	528.5997924804688	-154.6586608886719	-422.1956481933594	352.4187927246094	-427.4789733886719	-479.0289611816406	270.9276733398438	-411.9325866699219	-215.7346038818359	433.2342529296875	-159.7273712158203	-514.3621215820312	60.84312057495117	-403.7073059082031	-254.84521484375	503.35302734375	-153.2888488769531	-672.6033935546875	136.1142272949219	-298.8465270996094	-305.1295471191406	384.014892578125	-167.7261505126953	-341.2878112792969	454.9075317382812	-162.3143157958984	-610.0771484375	151.5101470947266	-383.7295532226562	-485.5425415039062	324.671142578125	-190.0765228271484	-410.5914611816406	153.1934356689453	-223.4911651611328	-530.2710571289062	365.9862976074219	-245.4434204101562	-544.5892944335938	339.6050109863281	-278.5724792480469	-552.0750732421875	352.4843444824219	-221.3815460205078	-681.4906616210938	135.6607208251953	-352.4147033691406
